{"title":"Faces.in.the.Crowd.2011.480p.BRRip.XviD.AC3-PRESTiGE","uid":6736814,"size":2341704750,"categoryP":"video","categoryS":"movies","magnet":"?xt=urn:btih:9bf2616fc116b4dc259bf6cbfc3e28999d36f4f3&amp;dn=Faces.in.the.Crowd.2011.480p.BRRip.XviD.AC3-PRESTiGE&amp;tr=udp%3A%2F%2Ftracker.openbittorrent.com%3A80&amp;tr=udp%3A%2F%2Fopen.demonii.com%3A1337&amp;tr=udp%3A%2F%2Ftracker.coppersurfer.tk%3A6969&amp;tr=udp%3A%2F%2Fexodus.desync.com%3A6969","seeders":1,"leechers":0,"uploader":"UltraTorrents","files":4,"time":1318358174,"description":"Cast:\nMilla Jovovich, Sarah Wayne Callies and Julian McMahon.\n\nPlot:\nA horror-thriller centered on a woman living with &quot;face-blindness&quot; after surviving a serial killer's attack. As she lives with her condition, one in which facial features change each time she loses sight of them, the killer closes in.\n\n\nINFO, POSTER and TRAILER:\n        &lt;a href=&quot;\nhttp://www.sharepixon.net/movies/faces-in-the-crowd&quot; rel=&quot;nofollow&quot; target=&quot;_NEW&quot;&gt;\nhttp://www.sharepixon.net/movies/faces-in-the-crowd&lt;/a&gt;\n\n\t\n\nSCREENSHOTS:\n       &lt;a href=&quot;\nhttp://img.sharepixon.net/?v=facesifxf.png&quot; rel=&quot;nofollow&quot; target=&quot;_NEW&quot;&gt;\nhttp://img.sharepixon.net/?v=facesifxf.png&lt;/a&gt; &lt;a href=&quot;\nhttp://img.sharepixon.net/?v=facesiaga.png&quot; rel=&quot;nofollow&quot; target=&quot;_NEW&quot;&gt;\nhttp://img.sharepixon.net/?v=facesiaga.png&lt;/a&gt;\n\n\n\n\t\nID                               : 0\nFormat                           : MPEG-4 Visual\nFormat profile                   : Advanced Simple@L5\nFormat settings, BVOP            : 2\nFormat settings, QPel            : No\nFormat settings, GMC             : No warppoints\nFormat settings, Matrix          : Default (H.263)\nCodec ID                         : XVID\nCodec ID/Hint                    : XviD\nDuration                         : 1h 42mn\nBit rate                         : 2 527 Kbps\nWidth                            : 720 pixels\nHeight                           : 304 pixels\nDisplay aspect ratio             : 2.35:1\nFrame rate                       : 23.976 fps\nColor space                      : YUV\nChroma subsampling               : 4:2:0\nBit depth                        : 8 bits\nScan type                        : Progressive\nCompression mode                 : Lossy\nBits/(Pixel*Frame)               : 0.481\nStream size                      : 1.81 GiB (85%)\nWriting library                  : XviD 1.2.1 (UTC 2008-12-04)\n\n\n\n\nID                               : 1\nFormat                           : AC-3\nFormat/Info                      : Audio Coding 3\nMode extension                   : CM (complete main)\nCodec ID                         : 2000\nDuration                         : 1h 42mn\nBit rate mode                    : Constant\nBit rate                         : 448 Kbps\nChannel(s)                       : 6 channels\nChannel positions                : Front: L C R, Side: L R, LFE\nSampling rate                    : 48.0 KHz\nBit depth                        : 16 bits\nCompression mode                 : Lossy\nStream size                      : 329 MiB (15%)\nAlignment                        : Split accross interleaves\nInterleave, duration             : 500 ms (11.99 video frames)\nInterleave, preload duration     : 500 ms           ","torrent":{"xt":"urn:btih:9bf2616fc116b4dc259bf6cbfc3e28999d36f4f3","amp;dn":"Faces.in.the.Crowd.2011.480p.BRRip.XviD.AC3-PRESTiGE","amp;tr":["udp%3A%2F%2Ftracker.openbittorrent.com%3A80","udp%3A%2F%2Fopen.demonii.com%3A1337","udp%3A%2F%2Ftracker.coppersurfer.tk%3A6969","udp%3A%2F%2Fexodus.desync.com%3A6969"],"infoHash":"9bf2616fc116b4dc259bf6cbfc3e28999d36f4f3","infoHashBuffer":{"type":"Buffer","data":[155,242,97,111,193,22,180,220,37,155,246,203,252,62,40,153,157,54,244,243]},"announce":[],"urlList":[]}}